<svg width="22" height="22" viewBox="0 0 22 22" fill="none" xmlns="http://www.w3.org/2000/svg">
<g clip-path="url(#clip0)">
<path d="M14.0345 7.9707C13.7499 7.9707 13.5193 8.20135 13.5193 8.48593V18.2236C13.5193 18.508 13.7499 18.7389 14.0345 18.7389C14.3191 18.7389 14.5497 18.508 14.5497 18.2236V8.48593C14.5497 8.20135 14.3191 7.9707 14.0345 7.9707Z" fill="black"/>
<path d="M7.95492 7.9707C7.67034 7.9707 7.4397 8.20135 7.4397 8.48593V18.2236C7.4397 18.508 7.67034 18.7389 7.95492 18.7389C8.2395 18.7389 8.47014 18.508 8.47014 18.2236V8.48593C8.47014 8.20135 8.2395 7.9707 7.95492 7.9707Z" fill="black"/>
<path d="M3.52386 6.54961V19.2436C3.52386 19.9939 3.79898 20.6985 4.27958 21.204C4.75797 21.711 5.42374 21.9988 6.12049 22H15.8686C16.5656 21.9988 17.2314 21.711 17.7095 21.204C18.1902 20.6985 18.4653 19.9939 18.4653 19.2436V6.54961C19.4206 6.29603 20.0397 5.37306 19.9119 4.39273C19.7839 3.4126 18.9489 2.67942 17.9603 2.67922H15.3224V2.03519C15.3254 1.4936 15.1113 0.973553 14.7279 0.590962C14.3445 0.208571 13.8237 -0.00435998 13.2821 6.76958e-05H8.70706C8.16548 -0.00435998 7.64462 0.208571 7.26123 0.590962C6.87783 0.973553 6.66369 1.4936 6.66671 2.03519V2.67922H4.02882C3.04024 2.67942 2.20521 3.4126 2.07721 4.39273C1.94942 5.37306 2.56849 6.29603 3.52386 6.54961V6.54961ZM15.8686 20.9696H6.12049C5.23959 20.9696 4.5543 20.2128 4.5543 19.2436V6.5949H17.4348V19.2436C17.4348 20.2128 16.7495 20.9696 15.8686 20.9696ZM7.69715 2.03519C7.69373 1.76691 7.79919 1.5087 7.98958 1.31932C8.17977 1.12993 8.43859 1.02588 8.70706 1.03051H13.2821C13.5505 1.02588 13.8094 1.12993 13.9996 1.31932C14.1899 1.5085 14.2954 1.76691 14.292 2.03519V2.67922H7.69715V2.03519ZM4.02882 3.70966H17.9603C18.4725 3.70966 18.8877 4.12485 18.8877 4.63706C18.8877 5.14926 18.4725 5.56445 17.9603 5.56445H4.02882C3.51661 5.56445 3.10142 5.14926 3.10142 4.63706C3.10142 4.12485 3.51661 3.70966 4.02882 3.70966V3.70966Z" fill="black"/>
<path d="M10.995 7.9707C10.7104 7.9707 10.4797 8.20135 10.4797 8.48593V18.2236C10.4797 18.508 10.7104 18.7389 10.995 18.7389C11.2795 18.7389 11.5102 18.508 11.5102 18.2236V8.48593C11.5102 8.20135 11.2795 7.9707 10.995 7.9707Z" fill="black"/>
</g>
<defs>
<clipPath id="clip0">
<rect width="22" height="22" fill="white"/>
</clipPath>
</defs>
</svg>
