<svg width="23" height="23" viewBox="0 0 23 23" fill="none" xmlns="http://www.w3.org/2000/svg">
<g clip-path="url(#clip0)">
<path d="M22.425 9.95899C22.4243 9.95846 22.4238 9.95776 22.4233 9.95723L13.0411 0.575387C12.6412 0.175301 12.1095 -0.0449219 11.5439 -0.0449219C10.9784 -0.0449219 10.4467 0.175301 10.0466 0.575387L0.669291 9.9525C0.666132 9.95566 0.662798 9.95899 0.659815 9.96215C-0.161415 10.7881 -0.160011 12.1282 0.663851 12.9521C1.04025 13.3287 1.5372 13.5466 2.06871 13.5696C2.09047 13.5717 2.11223 13.5728 2.13417 13.5728H2.50793V20.477C2.50793 21.8435 3.61975 22.9551 4.98619 22.9551H8.6568C9.02899 22.9551 9.33063 22.6533 9.33063 22.2813V16.8682C9.33063 16.2447 9.83793 15.7376 10.4614 15.7376H12.6264C13.2499 15.7376 13.757 16.2447 13.757 16.8682V22.2813C13.757 22.6533 14.0587 22.9551 14.4309 22.9551H18.1015C19.4681 22.9551 20.5797 21.8435 20.5797 20.477V13.5728H20.9265C21.4918 13.5728 22.0235 13.3525 22.4238 12.9523C23.2485 12.1272 23.2489 10.7846 22.425 9.95899ZM21.4708 11.9994C21.3253 12.1449 21.1319 12.2251 20.9265 12.2251H19.9059C19.5337 12.2251 19.2321 12.5267 19.2321 12.8989V20.477C19.2321 21.1003 18.7249 21.6075 18.1015 21.6075H15.1047V16.8682C15.1047 15.5018 13.993 14.3899 12.6264 14.3899H10.4614C9.09479 14.3899 7.98297 15.5018 7.98297 16.8682V21.6075H4.98619C4.36289 21.6075 3.85559 21.1003 3.85559 20.477V12.8989C3.85559 12.5267 3.55395 12.2251 3.18176 12.2251H2.17874C2.16821 12.2244 2.15786 12.2239 2.14715 12.2237C1.94641 12.2202 1.75812 12.1405 1.61704 11.9993C1.31697 11.6992 1.31697 11.2108 1.61704 10.9106C1.61721 10.9106 1.61721 10.9104 1.61739 10.9102L1.61792 10.9097L10.9998 1.52822C11.1451 1.38275 11.3383 1.30274 11.5439 1.30274C11.7494 1.30274 11.9426 1.38275 12.0881 1.52822L21.4678 10.9078C21.4692 10.9092 21.4708 10.9106 21.4722 10.912C21.7707 11.2126 21.7702 11.6999 21.4708 11.9994Z" fill="black"/>
</g>
<defs>
<clipPath id="clip0">
<rect width="23" height="23" fill="white"/>
</clipPath>
</defs>
</svg>
